# xmcd CD database file
#
# Track frame offsets:
#	150
#	16600
#	33382
#	47770
#	60725
#	72002
#	88267
#	102010
#	116835
#	129082
#	142440
#	153717
#	167617
#	194235
#
# Disc length: 2787 seconds
#
# Revision: 0
# Processed by: cddbd v1.5.1PL0 Copyright (c) Steve Scherf et al.
# Submitted via: CDex 1.51
#
DISCID=c60ae10e
DTITLE=Outland - I Feel Good
DYEAR=1995
DGENRE=Blues
TTITLE0=Better Than Nothing
TTITLE1=Take Me To The River
TTITLE2=Hit The Road, Jack
TTITLE3=Baby I Love You
TTITLE4=Midnight Hour
TTITLE5=Let's Make A Baby King
TTITLE6=You Are My Sunshine
TTITLE7=You Got Me Humming
TTITLE8=Chain Of Fools
TTITLE9=I Feel Good
TTITLE10=Soul Sister, Brown Sugar
TTITLE11=I Received A Letter
TTITLE12=Living In America
TTITLE13=Gimme Some Lovin'
EXTD=YEAR: 1995
EXTT0=
EXTT1=
EXTT2=
EXTT3=
EXTT4=
EXTT5=
EXTT6=
EXTT7=
EXTT8=
EXTT9=
EXTT10=
EXTT11=
EXTT12=
EXTT13=
PLAYORDER=
